<?xml version="1.0" standalone="no"?>
<!DOCTYPE svg PUBLIC "-//W3C//DTD SVG 20010904//EN"
 "http://www.w3.org/TR/2001/REC-SVG-20010904/DTD/svg10.dtd">
<svg version="1.0" xmlns="http://www.w3.org/2000/svg"
 width="512.000000pt" height="512.000000pt" viewBox="0 0 512.000000 512.000000"
 preserveAspectRatio="xMidYMid meet">

<g transform="translate(0.000000,512.000000) scale(0.100000,-0.100000)"
fill="#000000" stroke="none">
<path d="M2229 5025 c-185 -25 -433 -107 -566 -187 -72 -42 -169 -139 -211
-211 -72 -120 -108 -292 -83 -392 7 -26 34 -82 61 -125 28 -42 50 -80 50 -84
0 -4 -22 -36 -50 -71 -49 -65 -70 -115 -70 -169 0 -82 56 -168 134 -205 44
-20 45 -22 38 -53 -4 -18 -7 -64 -6 -103 1 -75 26 -141 78 -202 35 -41 131
-90 194 -99 40 -5 52 -11 52 -24 0 -9 9 -43 20 -75 11 -32 20 -60 20 -62 0 -1
-87 -3 -194 -3 l-194 0 -12 30 c-17 42 -90 104 -138 118 -53 16 -411 16 -464
0 -48 -14 -121 -76 -138 -118 l-12 -30 -89 0 -88 0 -3 189 c-3 207 -6 216 -72
265 -25 19 -42 21 -166 21 -151 0 -167 -5 -214 -69 -21 -27 -21 -37 -21 -646
0 -609 0 -619 21 -646 47 -64 63 -69 214 -69 124 0 141 2 166 21 66 49 69 58
72 265 l3 189 70 0 c62 0 70 -2 65 -17 -22 -77 -111 -511 -123 -603 -38 -284
13 -614 136 -892 67 -149 106 -211 171 -272 198 -183 503 -179 697 10 40 40
53 48 57 35 3 -9 30 -137 61 -286 34 -158 65 -283 77 -302 10 -17 38 -41 62
-52 42 -21 55 -21 726 -21 671 0 684 0 726 21 24 11 52 35 62 52 11 18 40 130
66 252 26 121 54 250 62 286 l15 66 52 -51 c124 -121 310 -172 472 -131 95 25
165 65 236 135 56 55 76 86 122 180 73 151 102 231 137 371 51 210 62 457 30
659 -10 60 -105 502 -116 543 -5 15 3 17 65 17 l70 0 3 -189 c3 -207 6 -216
72 -265 25 -19 42 -21 166 -21 151 0 167 5 214 69 21 27 21 37 21 646 0 609 0
619 -21 646 -47 64 -63 69 -214 69 -124 0 -141 -2 -166 -21 -66 -49 -69 -58
-72 -265 l-3 -189 -88 0 -89 0 -12 30 c-17 42 -90 104 -138 118 -53 16 -411
16 -464 0 -48 -14 -121 -76 -138 -118 l-12 -30 -194 0 c-107 0 -194 2 -194 3
0 2 9 30 20 62 11 32 20 66 20 75 0 13 12 19 52 24 63 9 159 58 194 99 76 91
101 209 65 314 l-21 62 90 209 c103 242 115 285 106 397 -16 216 -121 416
-288 550 -165 132 -464 243 -743 275 -121 13 -378 11 -496 -5z m616 -175 c140
-30 262 -73 390 -138 88 -45 124 -71 181 -127 84 -84 143 -193 170 -311 27
-123 18 -171 -69 -374 -48 -109 -81 -174 -89 -173 -7 2 -43 11 -80 20 -65 17
-68 19 -68 49 0 70 -30 135 -89 195 -61 61 -125 89 -202 89 -20 0 -164 -36
-319 -80 -155 -44 -294 -80 -308 -80 -81 0 -167 62 -190 136 -30 101 -7 157
112 274 47 46 86 89 86 94 0 14 -92 106 -106 106 -6 0 -54 -44 -106 -97 -125
-130 -153 -184 -153 -306 0 -89 0 -89 -38 -130 -46 -50 -81 -112 -103 -182
-17 -52 -17 -53 -65 -58 -26 -3 -71 -18 -100 -33 -53 -26 -53 -26 -107 -10
-58 19 -79 46 -69 88 4 13 72 105 153 206 81 101 145 184 143 186 -2 1 -30 24
-63 49 l-58 47 -52 -65 -51 -66 -22 28 c-55 68 -65 124 -38 228 31 118 109
223 209 284 125 75 341 146 521 170 39 5 162 8 275 6 161 -3 227 -8 305 -25z
m204 -948 c19 -10 43 -34 53 -53 17 -32 19 -59 16 -390 l-3 -355 -37 -76 c-45
-91 -103 -147 -196 -191 l-67 -32 -255 0 -255 0 -65 31 c-95 46 -153 101 -197
192 l-38 76 -3 295 c-4 326 1 370 49 446 l30 47 41 -37 c22 -21 66 -49 97 -64
47 -22 69 -26 141 -25 75 1 114 9 340 76 140 42 269 76 285 77 17 1 46 -7 64
-17z m-1209 -462 c0 -177 1 -173 -63 -146 -125 52 -126 238 -2 292 66 29 65
31 65 -146z m1529 132 c49 -36 66 -70 66 -132 0 -44 -5 -66 -21 -86 -28 -39
-63 -63 -101 -70 l-33 -6 0 162 0 163 33 -7 c17 -3 43 -14 56 -24z m-2969
-852 l0 -560 -80 0 -80 0 0 560 0 560 80 0 80 0 0 -560z m4480 0 l0 -560 -80
0 -80 0 0 560 0 560 80 0 80 0 0 -560z m-3545 215 c24 -23 25 -31 25 -135 0
-104 -1 -112 -25 -135 -24 -25 -26 -25 -215 -25 -189 0 -191 0 -215 25 -24 23
-25 31 -25 135 0 104 1 112 25 135 24 25 26 25 215 25 189 0 191 0 215 -25z
m2880 0 c24 -23 25 -31 25 -135 0 -104 -1 -112 -25 -135 -24 -25 -26 -25 -215
-25 -189 0 -191 0 -215 25 -24 23 -25 31 -25 135 0 104 1 112 25 135 24 25 26
25 215 25 189 0 191 0 215 -25z m-3495 -192 c0 -32 3 -68 6 -80 6 -23 5 -23
-80 -23 l-86 0 0 80 0 80 80 0 80 0 0 -57z m1332 21 c23 -20 67 -48 96 -63 34
-16 52 -31 50 -41 -3 -13 -48 -15 -347 -18 l-343 -2 6 22 c3 13 6 49 6 81 l0
57 244 0 244 0 44 -36z m1548 -21 c0 -32 3 -68 6 -81 l6 -22 -343 2 c-299 3
-344 5 -347 18 -2 10 16 25 50 42 29 14 73 42 98 62 l45 36 243 0 242 0 0 -57z
m960 -23 l0 -80 -86 0 c-85 0 -86 0 -80 23 3 12 6 48 6 80 l0 57 80 0 80 0 0
-80z m-1745 -210 l65 -130 0 -165 c0 -163 0 -166 -25 -190 l-24 -25 -271 0
-271 0 -24 25 c-25 24 -25 27 -25 190 l0 165 65 130 65 130 190 0 190 0 65
-130z m-1615 -710 l0 -680 80 0 80 0 0 379 0 380 162 115 c89 64 163 114 166
112 2 -3 -23 -94 -56 -203 -83 -275 -89 -297 -103 -392 -15 -105 -8 -234 22
-382 l23 -116 -24 -62 c-31 -85 -100 -159 -182 -197 -54 -25 -75 -29 -148 -29
-104 1 -156 22 -231 92 -89 83 -197 331 -240 555 -26 133 -35 327 -20 448 6
52 39 222 73 378 l62 282 168 0 168 0 0 -680z m895 670 c-11 -5 -76 -23 -145
-40 -69 -17 -140 -40 -159 -51 -19 -11 -118 -80 -220 -153 -102 -73 -192 -136
-198 -140 -10 -6 -13 36 -13 193 l0 201 378 -1 c235 0 369 -4 357 -9z m1665
-191 c0 -157 -3 -199 -12 -193 -7 5 -100 70 -207 146 -106 76 -205 145 -221
153 -15 8 -83 28 -151 45 -68 17 -133 35 -144 40 -12 5 122 9 358 9 l377 1 0
-201z m558 -81 c74 -339 86 -432 79 -600 -10 -215 -61 -414 -157 -615 -57
-121 -118 -191 -199 -230 -48 -24 -69 -28 -141 -28 -73 0 -94 4 -148 29 -82
38 -151 112 -182 197 l-24 62 23 116 c30 148 37 277 22 382 -14 94 -19 114
-103 393 -32 109 -57 200 -55 202 2 2 77 -48 165 -111 l162 -116 0 -379 0
-380 80 0 80 0 0 680 0 680 168 0 168 0 62 -282z m-2214 -221 c24 -49 95 -110
144 -125 55 -17 570 -16 626 0 55 16 138 99 154 154 7 23 12 97 12 167 l0 125
88 -22 87 -22 102 -339 c110 -365 128 -453 121 -579 -3 -47 -51 -292 -114
-588 l-109 -508 -655 0 -655 0 -109 507 c-63 297 -111 542 -114 589 -7 126 11
214 121 579 l102 339 85 21 85 21 5 -140 c4 -111 9 -149 24 -179z"/>
<path d="M2185 3575 c-50 -49 -15 -135 55 -135 41 0 80 39 80 80 0 41 -39 80
-80 80 -19 0 -40 -9 -55 -25z"/>
<path d="M2825 3575 c-16 -15 -25 -36 -25 -55 0 -19 9 -40 25 -55 15 -16 36
-25 55 -25 19 0 40 9 55 25 16 15 25 36 25 55 0 19 -9 40 -25 55 -15 16 -36
25 -55 25 -19 0 -40 -9 -55 -25z"/>
<path d="M2796 3245 c-8 -43 -50 -94 -93 -111 -23 -10 -82 -14 -208 -14 l-175
0 0 -81 0 -81 203 4 202 3 63 34 c35 19 74 48 88 64 38 45 71 117 79 170 l7
47 -80 0 -80 0 -6 -35z"/>
</g>
</svg>
